<svg width="17" height="17" viewBox="0 0 17 17" fill="none" xmlns="http://www.w3.org/2000/svg">
<path fill-rule="evenodd" clip-rule="evenodd" d="M8.38465 16.1731C4.08975 16.1731 0.596191 12.6787 0.596191 8.38465C0.596191 4.09061 4.08975 0.596191 8.38465 0.596191C12.6796 0.596191 16.1731 4.09061 16.1731 8.38465C16.1731 12.6787 12.6796 16.1731 8.38465 16.1731ZM8.3846 2.32691C5.04508 2.32691 2.32691 5.04422 2.32691 8.3846C2.32691 11.725 5.04508 14.4423 8.3846 14.4423C11.7241 14.4423 14.4423 11.725 14.4423 8.3846C14.4423 5.04422 11.7241 2.32691 8.3846 2.32691ZM7.5192 8.81729L11.3269 11.6731L12.3654 10.2884L9.24997 7.9519V4.05767H7.5192V8.81729Z" fill="#FFCA44"/>
</svg>
