<svg width="12" height="12" viewBox="0 0 12 12" fill="none" xmlns="http://www.w3.org/2000/svg">
<circle cx="6" cy="6" r="6" fill="#D9D9D9"/>
<path fill-rule="evenodd" clip-rule="evenodd" d="M3.74079 2.9926C3.53419 2.786 3.19922 2.786 2.99263 2.9926C2.78603 3.19919 2.78603 3.53416 2.99263 3.74076L5.23711 5.98524L2.99263 8.22973C2.78603 8.43633 2.78603 8.77129 2.99263 8.97789C3.19923 9.18449 3.53419 9.18449 3.74079 8.97789L5.98528 6.73341L8.22975 8.97788C8.43635 9.18448 8.77131 9.18448 8.97791 8.97788C9.18451 8.77128 9.18451 8.43632 8.97791 8.22972L6.73344 5.98524L8.97792 3.74076C9.18452 3.53417 9.18452 3.1992 8.97792 2.9926C8.77132 2.78601 8.43635 2.78601 8.22976 2.9926L5.98528 5.23708L3.74079 2.9926Z" fill="white"/>
</svg>
