<svg width="18" height="14" viewBox="0 0 18 14" fill="none" xmlns="http://www.w3.org/2000/svg">
<path d="M16.418 13.084H1.58203C0.709699 13.084 0 12.3743 0 11.502V11.3613C0 10.489 0.709699 9.7793 1.58203 9.7793H16.418C17.2903 9.7793 18 10.489 18 11.3613V11.502C18 12.3743 17.2903 13.084 16.418 13.084ZM1.58203 10.834C1.29125 10.834 1.05469 11.0706 1.05469 11.3613V11.502C1.05469 11.7927 1.29125 12.0293 1.58203 12.0293H16.418C16.7087 12.0293 16.9453 11.7927 16.9453 11.502V11.3613C16.9453 11.0706 16.7087 10.834 16.418 10.834H1.58203Z" fill="#FFCA44"/>
<path d="M11.25 1.27148H6.75C6.45877 1.27148 6.22266 1.03537 6.22266 0.744141C6.22266 0.452906 6.45877 0.216797 6.75 0.216797H11.25C11.5412 0.216797 11.7773 0.452906 11.7773 0.744141C11.7773 1.03537 11.5412 1.27148 11.25 1.27148Z" fill="#FFCA44"/>
<path d="M10.125 3.52148H7.875C7.58377 3.52148 7.34766 3.28538 7.34766 2.99414V0.744141C7.34766 0.452906 7.58377 0.216797 7.875 0.216797H10.125C10.4162 0.216797 10.6523 0.452906 10.6523 0.744141V2.99414C10.6523 3.28538 10.4162 3.52148 10.125 3.52148ZM8.40234 2.4668H9.59766V1.27148H8.40234V2.4668Z" fill="#FFCA44"/>
<path d="M16.3125 10.834H1.6875C1.39627 10.834 1.16016 10.5979 1.16016 10.3066C1.16016 8.21256 1.97564 6.24381 3.45639 4.76303C4.93713 3.28225 6.90592 2.4668 9 2.4668C11.0941 2.4668 13.0628 3.28228 14.5436 4.76303C16.0244 6.24377 16.8398 8.21256 16.8398 10.3066C16.8398 10.5979 16.6037 10.834 16.3125 10.834ZM2.23513 9.7793H15.7649C15.4949 6.28343 12.5639 3.52148 9 3.52148C5.43607 3.52148 2.50509 6.28343 2.23513 9.7793Z" fill="#FFCA44"/>
</svg>
