<svg width="18" height="20" viewBox="0 0 18 20" fill="none" xmlns="http://www.w3.org/2000/svg">
<path fill-rule="evenodd" clip-rule="evenodd" d="M10.5732 2.80005H7.7237V4.40005H8.43608V5.20005C5.68702 5.20005 3.44944 7.71205 3.44944 10.8V14H14.8475V10.8C14.8475 7.71205 12.6099 5.20005 9.86083 5.20005V4.40005H10.5732V2.80005ZM4.87419 12.4H13.4227V10.8C13.4227 8.59445 11.8249 6.80005 9.86083 6.80005H8.43608C6.47205 6.80005 4.87419 8.59445 4.87419 10.8V12.4ZM15.5599 15.6H2.73706V17.2H15.5599V15.6Z" fill="black" fill-opacity="0.85"/>
<mask id="mask0" mask-type="alpha" maskUnits="userSpaceOnUse" x="2" y="2" width="14" height="16">
<path fill-rule="evenodd" clip-rule="evenodd" d="M10.5732 2.80005H7.7237V4.40005H8.43608V5.20005C5.68702 5.20005 3.44944 7.71205 3.44944 10.8V14H14.8475V10.8C14.8475 7.71205 12.6099 5.20005 9.86083 5.20005V4.40005H10.5732V2.80005ZM4.87419 12.4H13.4227V10.8C13.4227 8.59445 11.8249 6.80005 9.86083 6.80005H8.43608C6.47205 6.80005 4.87419 8.59445 4.87419 10.8V12.4ZM15.5599 15.6H2.73706V17.2H15.5599V15.6Z" fill="white"/>
</mask>
<g mask="url(#mask0)">
</g>
</svg>
