<svg width="15" height="18" viewBox="0 0 15 18" fill="none" xmlns="http://www.w3.org/2000/svg">
<path d="M12.944 6.79781C12.4602 5.7895 11.7845 4.806 10.9357 3.87469C10.7578 3.67945 10.4508 3.66763 10.2571 3.84311L8.0237 5.86634V1.6293C8.0237 1.27462 7.58309 1.00961 7.25313 1.20333C5.43919 2.26828 3.23581 4.40442 2.10739 6.68537C1.46633 7.98117 1.1413 9.32414 1.1413 10.677C1.14127 14.0875 3.99306 16.8621 7.49838 16.8621C11.9027 16.8621 15.6522 12.4424 12.944 6.79781ZM6.03178 14.5116C6.03178 13.3198 7.02034 12.4451 7.49914 12.0914C7.97583 12.4672 8.96495 13.3829 8.96495 14.5116C8.96495 15.2984 8.30706 15.9385 7.49835 15.9385C6.68965 15.9385 6.03178 15.2984 6.03178 14.5116ZM9.69712 15.4835C10.4228 13.9358 9.22198 12.0652 7.77066 11.1363C7.61865 11.039 7.42298 11.0348 7.26664 11.1255C5.7545 12.0033 4.57249 13.9327 5.29962 15.4835C3.41044 14.6623 2.09053 12.8169 2.09053 10.677C2.09053 7.32837 4.33742 4.41201 7.07445 2.44241V6.92732C7.07445 7.32976 7.56939 7.53982 7.87252 7.26529L10.542 4.84706C12.1112 6.69416 12.9062 8.65344 12.9062 10.6771C12.9062 12.8169 11.5863 14.6623 9.69712 15.4835Z" fill="#FFCA44"/>
<path fill-rule="evenodd" clip-rule="evenodd" d="M7.77066 11.1363C9.16395 12.028 10.3264 13.7877 9.77503 15.2964C9.75207 15.3592 9.72613 15.4217 9.69712 15.4835C9.76137 15.4556 9.82497 15.4265 9.88788 15.3962C11.6746 14.5364 12.9062 12.7441 12.9062 10.6771C12.9062 8.69241 12.1416 6.76963 10.6318 4.95389C10.6021 4.91824 10.5722 4.88263 10.542 4.84706C10.542 4.84706 10.542 4.84707 10.542 4.84706L7.87252 7.26529C7.56939 7.53982 7.07445 7.32976 7.07445 6.92732V2.44241C7.0272 2.47641 6.98009 2.51069 6.93314 2.54525C4.26051 4.51282 2.09053 7.38618 2.09053 10.677C2.09053 12.7441 3.32217 14.5364 5.10884 15.3962C5.17176 15.4265 5.23536 15.4556 5.29962 15.4835C5.27064 15.4217 5.24469 15.3593 5.22168 15.2964C4.66723 13.7806 5.81477 11.9683 7.26664 11.1255C7.42298 11.0348 7.61865 11.039 7.77066 11.1363ZM5.044 15.2091C4.82304 14.4765 4.96421 13.6949 5.31646 12.9916C5.72243 12.181 6.41525 11.4593 7.19441 11.0069C7.39718 10.8893 7.65095 10.8948 7.84811 11.0209C8.59312 11.4977 9.27413 12.2158 9.67711 13.017C10.0267 13.7121 10.1717 14.4807 9.95262 15.2092C11.6241 14.349 12.7649 12.6399 12.7649 10.6771C12.7649 8.73217 12.0173 6.84162 10.528 5.04792L7.96864 7.36639C7.57569 7.72226 6.93314 7.45097 6.93314 6.92731V2.71845C4.31862 4.67012 2.23183 7.48136 2.23183 10.677C2.23183 12.6398 3.3726 14.3489 5.044 15.2091ZM11.0413 3.78302C11.8981 4.7231 12.5818 5.7176 13.072 6.7393C14.4438 9.59866 14.1859 12.1646 13.0085 14.0193C11.8331 15.8707 9.74908 17 7.49838 17C3.91546 17 0.999968 14.1641 1 10.677C1 9.30205 1.33043 7.93867 1.98015 6.62538C3.12183 4.31762 5.34554 2.1623 7.1803 1.08513C7.39732 0.957711 7.64588 0.984563 7.83345 1.09157C8.01982 1.19789 8.16501 1.39414 8.16501 1.62929V5.55015L10.161 3.74201C10.4122 3.51442 10.8103 3.52945 11.0413 3.78302ZM10.9357 3.87469C11.7845 4.806 12.4602 5.7895 12.944 6.79781C15.6522 12.4424 11.9027 16.8621 7.49838 16.8621C3.99306 16.8621 1.14127 14.0875 1.1413 10.677C1.1413 9.32414 1.46633 7.98117 2.10739 6.68537C3.23581 4.40442 5.43919 2.26828 7.25313 1.20333C7.58309 1.00961 8.0237 1.27462 8.0237 1.6293V5.86634L10.2571 3.84311C10.4508 3.66763 10.7578 3.67945 10.9357 3.87469ZM6.70017 13.0684C6.40429 13.4653 6.17309 13.954 6.17309 14.5116C6.17309 15.2218 6.76726 15.8006 7.49835 15.8006C8.22945 15.8006 8.82365 15.2218 8.82365 14.5116C8.82365 13.9868 8.59333 13.5036 8.29604 13.0996C8.03381 12.7433 7.72534 12.4566 7.49643 12.2681C7.26773 12.4458 6.96094 12.7185 6.70017 13.0684ZM7.49914 12.0914C7.02034 12.4451 6.03178 13.3198 6.03178 14.5116C6.03178 15.2984 6.68965 15.9385 7.49835 15.9385C8.30706 15.9385 8.96495 15.2984 8.96495 14.5116C8.96495 13.3829 7.97583 12.4672 7.49914 12.0914Z" fill="#FFCA44"/>
<path d="M12.944 6.79781L13.1694 6.68967L13.1694 6.68966L12.944 6.79781ZM10.9357 3.87469L10.7509 4.04305L10.7509 4.04309L10.9357 3.87469ZM10.2571 3.84311L10.425 4.0284L10.425 4.02838L10.2571 3.84311ZM8.0237 5.86634H7.7737C7.7737 5.96521 7.83198 6.0548 7.92236 6.09488C8.01275 6.13496 8.11827 6.118 8.19154 6.05162L8.0237 5.86634ZM7.25313 1.20333L7.3797 1.41893L7.3797 1.41892L7.25313 1.20333ZM2.10739 6.68537L2.33147 6.79623L2.33147 6.79623L2.10739 6.68537ZM1.1413 10.677L1.3913 10.677V10.677H1.1413ZM7.49914 12.0914L7.65391 11.8951C7.56542 11.8253 7.44121 11.8234 7.35059 11.8903L7.49914 12.0914ZM9.69712 15.4835L9.47076 15.3774C9.42661 15.4716 9.44537 15.5832 9.51785 15.6578C9.59034 15.7324 9.70142 15.7543 9.79679 15.7128L9.69712 15.4835ZM7.77066 11.1363L7.90543 10.9257L7.90537 10.9257L7.77066 11.1363ZM7.26664 11.1255L7.14117 10.9093L7.14113 10.9093L7.26664 11.1255ZM5.29962 15.4835L5.19995 15.7128C5.29532 15.7543 5.4064 15.7324 5.47889 15.6578C5.55137 15.5832 5.57012 15.4716 5.52597 15.3774L5.29962 15.4835ZM7.07445 2.44241H7.32445C7.32445 2.3486 7.27193 2.26269 7.18845 2.21992C7.10497 2.17714 7.00456 2.1847 6.92842 2.23949L7.07445 2.44241ZM7.87252 7.26529L8.04034 7.4506L8.04036 7.45057L7.87252 7.26529ZM9.77503 15.2964L9.54022 15.2106L9.54022 15.2106L9.77503 15.2964ZM9.88788 15.3962L9.77947 15.1709L9.77947 15.1709L9.88788 15.3962ZM10.6318 4.95389L10.824 4.79405L10.824 4.79405L10.6318 4.95389ZM6.93314 2.54525L7.08136 2.74658L7.08136 2.74658L6.93314 2.54525ZM5.10884 15.3962L5.21725 15.1709L5.21725 15.1709L5.10884 15.3962ZM5.22168 15.2964L5.45646 15.2105L5.22168 15.2964ZM5.31646 12.9916L5.53999 13.1035L5.53999 13.1035L5.31646 12.9916ZM5.044 15.2091L4.9296 15.4314C5.01882 15.4773 5.12683 15.4654 5.20395 15.4012C5.28106 15.3371 5.31232 15.233 5.28335 15.1369L5.044 15.2091ZM7.19441 11.0069L7.06894 10.7907L7.0689 10.7907L7.19441 11.0069ZM7.84811 11.0209L7.98288 10.8103L7.98282 10.8103L7.84811 11.0209ZM9.67711 13.017L9.90045 12.9047L9.90045 12.9047L9.67711 13.017ZM9.95262 15.2092L9.71321 15.1372C9.68433 15.2332 9.71564 15.3372 9.79274 15.4014C9.86985 15.4655 9.97783 15.4774 10.067 15.4315L9.95262 15.2092ZM10.528 5.04792L10.7203 4.88822C10.6768 4.83577 10.6137 4.80338 10.5457 4.79855C10.4777 4.79372 10.4107 4.81687 10.3601 4.86264L10.528 5.04792ZM7.96864 7.36639L8.13646 7.55169L8.13648 7.55167L7.96864 7.36639ZM6.93314 2.71845H7.18314C7.18314 2.62385 7.12975 2.53736 7.0452 2.49497C6.96064 2.45257 6.85939 2.46152 6.78359 2.51811L6.93314 2.71845ZM13.072 6.7393L13.2974 6.63116L13.2974 6.63116L13.072 6.7393ZM11.0413 3.78302L10.8565 3.95138L10.8565 3.95143L11.0413 3.78302ZM13.0085 14.0193L12.7974 13.8853L12.7974 13.8853L13.0085 14.0193ZM1 10.677L1.25 10.677V10.677H1ZM1.98015 6.62538L2.20423 6.73624L2.20423 6.73624L1.98015 6.62538ZM7.1803 1.08513L7.30687 1.30072L7.30687 1.30072L7.1803 1.08513ZM7.83345 1.09157L7.95733 0.874423L7.95733 0.874423L7.83345 1.09157ZM8.16501 5.55015H7.91501C7.91501 5.64902 7.97328 5.73861 8.06367 5.77869C8.15405 5.81877 8.25957 5.80181 8.33285 5.73543L8.16501 5.55015ZM10.161 3.74201L10.3289 3.92729L10.3289 3.92728L10.161 3.74201ZM6.70017 13.0684L6.49973 12.919L6.49973 12.919L6.70017 13.0684ZM8.29604 13.0996L8.09469 13.2478L8.29604 13.0996ZM7.49643 12.2681L7.65537 12.0751C7.56511 12.0007 7.43537 11.9989 7.34304 12.0706L7.49643 12.2681ZM13.1694 6.68966C12.6739 5.65681 11.9837 4.65335 11.1204 3.70628L10.7509 4.04309C11.5854 4.95865 12.2466 5.92218 12.7186 6.90595L13.1694 6.68966ZM11.1205 3.70632C10.8486 3.40787 10.3837 3.39107 10.0893 3.65785L10.425 4.02838C10.5179 3.94419 10.667 3.95104 10.7509 4.04305L11.1205 3.70632ZM10.0893 3.65783L7.85586 5.68106L8.19154 6.05162L10.425 4.0284L10.0893 3.65783ZM8.2737 5.86634V1.6293H7.7737V5.86634H8.2737ZM8.2737 1.6293C8.2737 1.34415 8.09838 1.11466 7.88603 0.993515C7.67146 0.871105 7.38217 0.837665 7.12655 0.987746L7.3797 1.41892C7.45404 1.37528 7.55004 1.37748 7.63827 1.42781C7.72872 1.47941 7.7737 1.55976 7.7737 1.6293H8.2737ZM7.12656 0.987743C5.27609 2.07413 3.03599 4.24453 1.88332 6.57452L2.33147 6.79623C3.43563 4.56432 5.60229 2.46242 7.3797 1.41893L7.12656 0.987743ZM1.88332 6.57452C1.2264 7.90236 0.891304 9.28307 0.891304 10.677H1.3913C1.3913 9.3652 1.70626 8.05998 2.33147 6.79623L1.88332 6.57452ZM0.891304 10.677C0.891271 14.232 3.8615 17.1121 7.49838 17.1121V16.6121C4.12462 16.6121 1.39127 13.943 1.3913 10.677L0.891304 10.677ZM7.49838 17.1121C9.78363 17.1121 11.9029 15.9655 13.0994 14.0807C14.3003 12.189 14.5563 9.58043 13.1694 6.68967L12.7186 6.90595C14.0398 9.65978 13.7752 12.0833 12.6773 13.8127C11.5751 15.5488 9.61747 16.6121 7.49838 16.6121V17.1121ZM6.28178 14.5116C6.28178 13.9869 6.49933 13.5217 6.78636 13.1366C7.07342 12.7515 7.41943 12.4611 7.6477 12.2925L7.35059 11.8903C7.10005 12.0754 6.71238 12.3992 6.38547 12.8378C6.05851 13.2765 5.78178 13.8445 5.78178 14.5116H6.28178ZM7.34438 12.2877C7.57308 12.468 7.9208 12.7751 8.20945 13.1673C8.49914 13.561 8.71495 14.0206 8.71495 14.5116H9.21495C9.21495 13.8739 8.9362 13.3113 8.61216 12.871C8.28708 12.4292 7.90189 12.0905 7.65391 11.8951L7.34438 12.2877ZM8.71495 14.5116C8.71495 15.1539 8.17549 15.6885 7.49835 15.6885V16.1885C8.43862 16.1885 9.21495 15.4429 9.21495 14.5116H8.71495ZM7.49835 15.6885C6.82122 15.6885 6.28178 15.1539 6.28178 14.5116H5.78178C5.78178 15.4429 6.55808 16.1885 7.49835 16.1885V15.6885ZM9.92347 15.5897C10.3287 14.7253 10.187 13.7874 9.77361 12.9655C9.36062 12.1444 8.66515 11.4119 7.90543 10.9257L7.63589 11.3468C8.32749 11.7895 8.95809 12.4568 9.32692 13.1902C9.69539 13.9228 9.79117 14.694 9.47076 15.3774L9.92347 15.5897ZM7.90537 10.9257C7.67445 10.7779 7.37838 10.7716 7.14117 10.9093L7.39211 11.3417C7.46758 11.2979 7.56286 11.3001 7.63595 11.3469L7.90537 10.9257ZM7.14113 10.9093C6.34448 11.3718 5.63611 12.1091 5.21987 12.9402C4.80345 13.7716 4.6677 14.7247 5.07327 15.5897L5.52597 15.3774C5.20441 14.6916 5.2961 13.9045 5.66694 13.1641C6.03796 12.4233 6.67666 11.7571 7.39215 11.3417L7.14113 10.9093ZM5.39929 15.2543C3.59495 14.4699 2.34053 12.7105 2.34053 10.677H1.84053C1.84053 12.9233 3.22593 14.8547 5.19995 15.7128L5.39929 15.2543ZM2.34053 10.677C2.34053 7.44307 4.51477 4.59239 7.22047 2.64533L6.92842 2.23949C4.16007 4.23163 1.84053 7.21368 1.84053 10.677H2.34053ZM6.82445 2.44241V6.92732H7.32445V2.44241H6.82445ZM6.82445 6.92732C6.82445 7.56012 7.58662 7.8615 8.04034 7.4506L7.7047 7.07999C7.55216 7.21814 7.32445 7.09939 7.32445 6.92732H6.82445ZM8.04036 7.45057L10.7098 5.03234L10.3741 4.66178L7.70468 7.08001L8.04036 7.45057ZM10.3515 5.00893C11.8903 6.82021 12.6562 8.72399 12.6562 10.6771H13.1562C13.1562 8.58289 12.3322 6.5681 10.7325 4.6852L10.3515 5.00893ZM12.6562 10.6771C12.6562 12.7105 11.4018 14.4699 9.59745 15.2543L9.79679 15.7128C11.7708 14.8547 13.1562 12.9233 13.1562 10.6771H12.6562ZM10.0098 15.3822C10.3175 14.5404 10.14 13.6474 9.72252 12.8671C9.30489 12.0864 8.63508 11.3927 7.90543 10.9257L7.63589 11.3468C8.29953 11.7716 8.90757 12.4036 9.28164 13.1029C9.65588 13.8025 9.78392 14.5437 9.54022 15.2106L10.0098 15.3822ZM9.92347 15.5897C9.95561 15.5211 9.98437 15.4519 10.0098 15.3822L9.54022 15.2106C9.51977 15.2666 9.49666 15.3222 9.47076 15.3774L9.92347 15.5897ZM9.77947 15.1709C9.71943 15.1998 9.65874 15.2276 9.59745 15.2543L9.79679 15.7128C9.86401 15.6836 9.93052 15.6531 9.99629 15.6215L9.77947 15.1709ZM12.6562 10.6771C12.6562 12.6414 11.4858 14.3498 9.77947 15.1709L9.99629 15.6215C11.8634 14.723 13.1562 12.8468 13.1562 10.6771H12.6562ZM10.4396 5.11372C11.9194 6.89353 12.6562 8.76147 12.6562 10.6771H13.1562C13.1562 8.62334 12.3637 6.64573 10.824 4.79405L10.4396 5.11372ZM10.3515 5.00893C10.3811 5.04384 10.4105 5.07877 10.4396 5.11372L10.824 4.79405C10.7938 4.7577 10.7633 4.72142 10.7325 4.6852L10.3515 5.00893ZM10.3674 5.02596C10.3674 5.02596 10.3674 5.02596 10.3674 5.02596C10.3674 5.02596 10.3674 5.02596 10.3674 5.02596C10.3674 5.02596 10.3674 5.02596 10.3674 5.02596C10.3674 5.02596 10.3674 5.02596 10.3674 5.02596C10.3674 5.02596 10.3674 5.02596 10.3674 5.02596C10.3674 5.02596 10.3674 5.02596 10.3674 5.02596C10.3674 5.02596 10.3674 5.02596 10.3674 5.02596C10.3674 5.02596 10.3674 5.02596 10.3674 5.02596C10.3674 5.02596 10.3674 5.02596 10.3674 5.02596C10.3674 5.02596 10.3674 5.02596 10.3674 5.02596C10.3674 5.02597 10.3674 5.02596 10.3673 5.02595C10.3631 4.67243 10.7166 4.66817 10.7166 4.66816C10.7166 4.66816 10.7166 4.66816 10.7166 4.66816C10.7166 4.66816 10.7166 4.66816 10.7166 4.66816C10.7166 4.66816 10.7166 4.66816 10.7166 4.66816C10.7166 4.66816 10.7166 4.66816 10.7166 4.66816C10.7166 4.66816 10.7166 4.66816 10.7166 4.66816C10.7166 4.66816 10.7166 4.66816 10.7166 4.66816C10.7166 4.66816 10.7166 4.66816 10.7166 4.66816C10.7166 4.66816 10.7166 4.66816 10.7166 4.66816C10.7166 4.66816 10.7166 4.66816 10.7166 4.66816C10.7166 4.66816 10.7166 4.66816 10.7166 4.66816C10.7166 4.66816 10.7166 4.66816 10.7166 4.66816C10.7166 4.66816 10.3631 4.67243 10.3674 5.02596C10.3674 5.02596 10.3674 5.02597 10.3674 5.02596C10.3674 5.02596 10.3674 5.02596 10.3674 5.02596C10.3674 5.02596 10.3674 5.02596 10.3674 5.02596C10.3674 5.02596 10.3674 5.02596 10.3674 5.02596C10.3674 5.02596 10.3674 5.02596 10.3674 5.02596C10.3674 5.02596 10.3674 5.02596 10.3674 5.02596C10.3674 5.02596 10.3674 5.02596 10.3674 5.02596C10.3674 5.02596 10.3674 5.02596 10.3674 5.02596C10.3674 5.02596 10.3674 5.02596 10.3674 5.02596L10.7166 4.66816C10.7166 4.66816 10.7166 4.66816 10.7166 4.66816C10.7166 4.66816 10.7166 4.66816 10.7166 4.66816C10.7166 4.66816 10.7166 4.66816 10.7166 4.66816C10.7166 4.66816 10.7166 4.66816 10.7166 4.66816C10.7166 4.66816 10.7166 4.66816 10.7166 4.66816C10.7166 4.66816 10.7166 4.66816 10.7166 4.66816C10.7166 4.66816 10.7166 4.66816 10.7166 4.66816C10.7166 4.66816 10.7166 4.66816 10.7166 4.66816C10.7166 4.66816 10.7166 4.66816 10.7166 4.66816C10.7166 4.66816 10.7166 4.66816 10.7166 4.66816C10.7166 4.66816 10.7166 4.66816 10.7166 4.66816C10.7166 4.66816 10.7166 4.66816 10.7166 4.66816C10.7166 4.66816 10.7166 4.66816 10.7166 4.66816C10.7166 4.66816 10.7166 4.66816 10.7166 4.66816C10.7166 4.66816 10.7166 4.66816 10.7166 4.66816C10.7166 4.66816 10.7166 4.66816 10.7166 4.66816C10.7166 4.66816 10.7166 4.66816 10.7166 4.66816C10.7166 4.66816 10.7166 4.66816 10.7166 4.66816C10.7166 4.66816 10.7166 4.66816 10.7166 4.66816C10.7166 4.66816 10.7166 4.66817 10.7166 4.66817C10.7209 5.0217 10.3674 5.02596 10.3674 5.02596C10.3674 5.02596 10.3674 5.02596 10.3674 5.02596C10.3674 5.02596 10.3674 5.02596 10.3674 5.02596C10.3674 5.02596 10.3674 5.02596 10.3674 5.02596C10.3674 5.02596 10.3674 5.02596 10.3674 5.02596C10.3674 5.02596 10.3674 5.02596 10.3674 5.02596C10.3674 5.02596 10.3674 5.02596 10.3674 5.02596C10.3674 5.02596 10.3674 5.02596 10.3674 5.02596C10.3674 5.02596 10.3674 5.02596 10.3674 5.02596C10.3674 5.02596 10.3674 5.02596 10.3674 5.02596C10.3674 5.02596 10.3674 5.02596 10.3674 5.02596C10.3674 5.02596 10.3674 5.02596 10.3674 5.02597C10.3674 5.02596 10.7209 5.0217 10.7166 4.66817C10.7166 4.66817 10.7166 4.66816 10.7166 4.66817C10.7166 4.66816 10.7166 4.66816 10.7166 4.66816C10.7166 4.66816 10.7166 4.66816 10.7166 4.66816C10.7166 4.66816 10.7166 4.66816 10.7166 4.66816C10.7166 4.66816 10.7166 4.66816 10.7166 4.66816C10.7166 4.66816 10.7166 4.66816 10.7166 4.66816C10.7166 4.66816 10.7166 4.66816 10.7166 4.66816C10.7166 4.66816 10.7166 4.66816 10.7166 4.66816C10.7166 4.66816 10.7166 4.66816 10.7166 4.66816L10.3674 5.02596ZM7.08136 2.74658C7.12756 2.71256 7.17393 2.67882 7.22047 2.64533L6.92842 2.23949C6.88046 2.274 6.83262 2.30881 6.78493 2.34392L7.08136 2.74658ZM2.34053 10.677C2.34053 7.49902 4.44 4.69113 7.08136 2.74658L6.78493 2.34392C4.08103 4.33452 1.84053 7.27334 1.84053 10.677H2.34053ZM5.21725 15.1709C3.51098 14.3498 2.34053 12.6414 2.34053 10.677H1.84053C1.84053 12.8468 3.13337 14.723 5.00043 15.6215L5.21725 15.1709ZM5.39929 15.2543C5.33799 15.2276 5.2773 15.1998 5.21725 15.1709L5.00043 15.6215C5.06621 15.6531 5.13273 15.6836 5.19995 15.7128L5.39929 15.2543ZM4.98689 15.3823C5.01241 15.452 5.04117 15.5212 5.07327 15.5897L5.52597 15.3774C5.50011 15.3223 5.47698 15.2666 5.45646 15.2105L4.98689 15.3823ZM7.14113 10.9093C6.37594 11.3535 5.69272 12.051 5.27123 12.8409C4.84997 13.6304 4.67806 14.538 4.98689 15.3823L5.45646 15.2105C5.21085 14.539 5.33549 13.7826 5.71236 13.0763C6.08899 12.3704 6.70547 11.7403 7.39215 11.3417L7.14113 10.9093ZM5.09293 12.8796C4.72086 13.6225 4.56027 14.471 4.80465 15.2813L5.28335 15.1369C5.08581 14.4819 5.20757 13.7672 5.53999 13.1035L5.09293 12.8796ZM7.0689 10.7907C6.24917 11.2666 5.52151 12.0239 5.09293 12.8796L5.53999 13.1035C5.92335 12.3381 6.58134 11.6519 7.31992 11.2232L7.0689 10.7907ZM7.98282 10.8103C7.70674 10.6337 7.35257 10.6261 7.06894 10.7907L7.31988 11.2232C7.44179 11.1524 7.59516 11.1558 7.7134 11.2315L7.98282 10.8103ZM9.90045 12.9047C9.47539 12.0596 8.76195 11.309 7.98288 10.8103L7.71334 11.2314C8.42429 11.6865 9.07287 12.372 9.45376 13.1294L9.90045 12.9047ZM10.192 15.2812C10.4348 14.4741 10.2694 13.6383 9.90045 12.9047L9.45376 13.1294C9.78391 13.7858 9.90869 14.4873 9.71321 15.1372L10.192 15.2812ZM12.5149 10.6771C12.5149 12.5397 11.4323 14.1665 9.83823 14.9869L10.067 15.4315C11.8158 14.5315 13.0149 12.74 13.0149 10.6771H12.5149ZM10.3356 5.20762C11.7951 6.96536 12.5149 8.80113 12.5149 10.6771H13.0149C13.0149 8.66321 12.2395 6.71787 10.7203 4.88822L10.3356 5.20762ZM8.13648 7.55167L10.6958 5.2332L10.3601 4.86264L7.8008 7.18111L8.13648 7.55167ZM6.68314 6.92731C6.68314 7.68169 7.5932 8.04369 8.13646 7.55169L7.80082 7.18108C7.55819 7.40082 7.18314 7.22025 7.18314 6.92731H6.68314ZM6.68314 2.71845V6.92731H7.18314V2.71845H6.68314ZM2.48183 10.677C2.48183 7.59305 4.49942 4.84713 7.08269 2.91878L6.78359 2.51811C4.13781 4.49311 1.98183 7.36967 1.98183 10.677H2.48183ZM5.1584 14.9868C3.56434 14.1665 2.48183 12.5397 2.48183 10.677H1.98183C1.98183 12.7399 3.18086 14.5314 4.9296 15.4314L5.1584 14.9868ZM13.2974 6.63116C12.7954 5.58491 12.0972 4.57045 11.226 3.61461L10.8565 3.95143C11.699 4.87576 12.3682 5.85028 12.8466 6.84744L13.2974 6.63116ZM13.2195 14.1533C14.4485 12.2174 14.7021 9.55897 13.2974 6.63116L12.8466 6.84744C14.1856 9.63836 13.9234 12.1118 12.7974 13.8853L13.2195 14.1533ZM7.49838 17.25C9.83216 17.25 11.997 16.079 13.2195 14.1533L12.7974 13.8853C11.6693 15.6624 9.666 16.75 7.49838 16.75V17.25ZM0.75 10.677C0.749966 14.3086 3.7839 17.25 7.49838 17.25V16.75C4.04701 16.75 1.24997 14.0196 1.25 10.677L0.75 10.677ZM1.75607 6.51453C1.0905 7.85986 0.75 9.26098 0.75 10.677H1.25C1.25 9.34311 1.57037 8.01748 2.20423 6.73624L1.75607 6.51453ZM7.05373 0.869536C5.18244 1.96815 2.92201 4.15773 1.75607 6.51453L2.20423 6.73624C3.32164 4.47752 5.50863 2.35644 7.30687 1.30072L7.05373 0.869536ZM7.95733 0.874423C7.70698 0.731598 7.36172 0.688709 7.05372 0.869538L7.30687 1.30072C7.43292 1.22671 7.58478 1.23753 7.70957 1.30872L7.95733 0.874423ZM8.41501 1.62929C8.41501 1.28597 8.20427 1.0153 7.95733 0.874423L7.70957 1.30872C7.83537 1.38049 7.91501 1.50231 7.91501 1.62929H8.41501ZM8.41501 5.55015V1.62929H7.91501V5.55015H8.41501ZM9.99317 3.55673L7.99717 5.36487L8.33285 5.73543L10.3289 3.92729L9.99317 3.55673ZM11.2261 3.61466C10.901 3.2578 10.345 3.23792 9.99316 3.55675L10.3289 3.92728C10.4794 3.79092 10.7196 3.8011 10.8565 3.95138L11.2261 3.61466ZM6.42309 14.5116C6.42309 14.0252 6.62471 13.5879 6.90062 13.2178L6.49973 12.919C6.18386 13.3427 5.92309 13.8829 5.92309 14.5116H6.42309ZM7.49835 15.5506C6.89885 15.5506 6.42309 15.0773 6.42309 14.5116H5.92309C5.92309 15.3662 6.63566 16.0506 7.49835 16.0506V15.5506ZM8.57365 14.5116C8.57365 15.0773 8.09786 15.5506 7.49835 15.5506V16.0506C8.36104 16.0506 9.07365 15.3662 9.07365 14.5116H8.57365ZM8.09469 13.2478C8.37478 13.6284 8.57365 14.0601 8.57365 14.5116H9.07365C9.07365 13.9134 8.81188 13.3788 8.4974 12.9514L8.09469 13.2478ZM7.33748 12.461C7.5569 12.6418 7.84881 12.9137 8.09469 13.2478L8.4974 12.9514C8.21882 12.5729 7.89378 12.2715 7.65537 12.0751L7.33748 12.461ZM6.90062 13.2178C7.14357 12.8918 7.43203 12.6347 7.64982 12.4655L7.34304 12.0706C7.10343 12.2568 6.77831 12.5452 6.49973 12.919L6.90062 13.2178Z" fill="#FFCA44"/>
</svg>
