<svg width="16" height="16" viewBox="0 0 16 16" fill="none" xmlns="http://www.w3.org/2000/svg">
<path fill-rule="evenodd" clip-rule="evenodd" d="M2.66663 2.66663H5.33329V5.33329H2.66663V2.66663ZM6.66663 2.66663H9.33329V5.33329H6.66663V2.66663ZM13.3333 2.66663H10.6666V5.33329H13.3333V2.66663ZM2.66663 6.66663H5.33329V9.33329H2.66663V6.66663ZM9.33329 6.66663H6.66663V9.33329H9.33329V6.66663ZM10.6666 6.66663H13.3333V9.33329H10.6666V6.66663ZM5.33329 10.6666H2.66663V13.3333H5.33329V10.6666ZM6.66663 10.6666H9.33329V13.3333H6.66663V10.6666ZM13.3333 10.6666H10.6666V13.3333H13.3333V10.6666Z" fill="black" fill-opacity="0.85"/>
<mask id="mask0" mask-type="alpha" maskUnits="userSpaceOnUse" x="2" y="2" width="12" height="12">
<path fill-rule="evenodd" clip-rule="evenodd" d="M2.66663 2.66663H5.33329V5.33329H2.66663V2.66663ZM6.66663 2.66663H9.33329V5.33329H6.66663V2.66663ZM13.3333 2.66663H10.6666V5.33329H13.3333V2.66663ZM2.66663 6.66663H5.33329V9.33329H2.66663V6.66663ZM9.33329 6.66663H6.66663V9.33329H9.33329V6.66663ZM10.6666 6.66663H13.3333V9.33329H10.6666V6.66663ZM5.33329 10.6666H2.66663V13.3333H5.33329V10.6666ZM6.66663 10.6666H9.33329V13.3333H6.66663V10.6666ZM13.3333 10.6666H10.6666V13.3333H13.3333V10.6666Z" fill="white"/>
</mask>
<g mask="url(#mask0)">
</g>
</svg>
