<svg width="109" height="22" viewBox="0 0 109 22" fill="none" xmlns="http://www.w3.org/2000/svg">
    <path d="M8.696 1.4C10.3947 1.4 11.8693 1.68 13.12 2.24C14.3893 2.8 15.36 3.60267 16.032 4.648C16.704 5.69333 17.04 6.93467 17.04 8.372C17.04 9.79067 16.704 11.032 16.032 12.096C15.36 13.1413 14.3893 13.944 13.12 14.504C11.8693 15.064 10.3947 15.344 8.696 15.344H4.272V21H0.632V1.4H8.696ZM8.528 12.264C10.1147 12.264 11.3187 11.928 12.14 11.256C12.9613 10.584 13.372 9.62267 13.372 8.372C13.372 7.12133 12.9613 6.16 12.14 5.488C11.3187 4.816 10.1147 4.48 8.528 4.48H4.272V12.264H8.528ZM18.7924 0.223999H22.2924V21H18.7924V0.223999ZM30.7782 5.88C32.9808 5.88 34.6608 6.412 35.8182 7.476C36.9942 8.52133 37.5822 10.108 37.5822 12.236V21H34.2782V19.18C33.8488 19.8333 33.2328 20.3373 32.4302 20.692C31.6462 21.028 30.6942 21.196 29.5742 21.196C28.4542 21.196 27.4742 21.0093 26.6342 20.636C25.7942 20.244 25.1408 19.712 24.6742 19.04C24.2262 18.3493 24.0022 17.5747 24.0022 16.716C24.0022 15.372 24.4968 14.2987 25.4862 13.496C26.4942 12.6747 28.0715 12.264 30.2182 12.264H34.0822V12.04C34.0822 10.9947 33.7648 10.192 33.1302 9.632C32.5142 9.072 31.5902 8.792 30.3582 8.792C29.5182 8.792 28.6875 8.92267 27.8662 9.184C27.0635 9.44533 26.3822 9.80933 25.8222 10.276L24.4502 7.728C25.2342 7.13067 26.1768 6.67333 27.2782 6.356C28.3795 6.03867 29.5462 5.88 30.7782 5.88ZM30.3022 18.648C31.1795 18.648 31.9542 18.452 32.6262 18.06C33.3168 17.6493 33.8022 17.0707 34.0822 16.324V14.588H30.4702C28.4542 14.588 27.4462 15.2507 27.4462 16.576C27.4462 17.2107 27.6982 17.7147 28.2022 18.088C28.7062 18.4613 29.4062 18.648 30.3022 18.648ZM48.738 5.88C50.6233 5.88 52.1353 6.43067 53.274 7.532C54.4126 8.63333 54.982 10.2667 54.982 12.432V21H51.482V12.88C51.482 11.5733 51.174 10.5933 50.558 9.94C49.942 9.268 49.0646 8.932 47.926 8.932C46.638 8.932 45.6206 9.324 44.874 10.108C44.1273 10.8733 43.754 11.984 43.754 13.44V21H40.254V6.048H43.586V7.98C44.1646 7.28933 44.8926 6.76667 45.77 6.412C46.6473 6.05733 47.6366 5.88 48.738 5.88Z"
          fill="black" fill-opacity="0.85"/>
    <path d="M66.3659 5.684L65.7219 8.988H74.4299L73.6179 13.132H64.8819L64.1819 16.716H74.4579L73.5619 21H57.8539L61.7739 1.4H77.1179L76.2499 5.684H66.3659ZM95.4278 5.824L92.4038 21H87.3637L87.6718 19.572C86.4584 20.692 84.9931 21.252 83.2757 21.252C82.1557 21.252 81.1011 20.9813 80.1117 20.44C79.1411 19.88 78.3571 19.0773 77.7597 18.032C77.1624 16.9867 76.8637 15.7547 76.8637 14.336C76.8637 12.6933 77.2277 11.2093 77.9557 9.884C78.7024 8.54 79.7011 7.48533 80.9517 6.72C82.2211 5.95467 83.6024 5.572 85.0957 5.572C87.2984 5.572 88.8477 6.26267 89.7438 7.644L90.1078 5.824H95.4278ZM85.1238 16.968C86.1877 16.968 87.0557 16.576 87.7278 15.792C88.3998 15.008 88.7358 13.9907 88.7358 12.74C88.7358 11.844 88.4744 11.1347 87.9518 10.612C87.4478 10.0893 86.7478 9.828 85.8518 9.828C84.7877 9.828 83.9197 10.22 83.2478 11.004C82.5758 11.788 82.2397 12.8147 82.2397 14.084C82.2397 14.98 82.4918 15.6893 82.9958 16.212C83.5184 16.716 84.2278 16.968 85.1238 16.968ZM102.884 15.344C102.847 15.6053 102.828 15.7733 102.828 15.848C102.828 16.7067 103.295 17.136 104.229 17.136C104.733 17.136 105.265 16.9867 105.825 16.688L106.497 20.356C105.451 20.9533 104.135 21.252 102.548 21.252C100.98 21.252 99.7298 20.86 98.7965 20.076C97.8818 19.292 97.4245 18.2 97.4245 16.8C97.4245 16.2587 97.4712 15.7827 97.5645 15.372L98.5725 10.36H96.3325L97.1445 6.384H99.3565L100.141 2.436H105.461L104.677 6.384H108.12L107.337 10.36H103.893L102.884 15.344Z"
          fill="#FFCA44"/>
</svg>
