<svg width="20" height="20" viewBox="0 0 20 20" fill="none" xmlns="http://www.w3.org/2000/svg">
<g clip-path="url(#clip0)">
<path d="M19.2134 10.7024C19.2134 11.7005 19.0378 12.6592 18.7141 13.553C17.5653 16.7239 14.5543 19.0701 10.9236 19.4093C10.6245 19.4374 10.3206 19.4518 10.0135 19.4518C4.93256 19.4518 0.813568 15.5344 0.813568 10.7025C0.813568 9.09339 1.27062 7.74525 2.06759 6.66278C2.72171 5.77485 3.60456 5.0658 4.6516 4.53805C4.70029 4.51343 4.74975 4.48922 4.79921 4.4654C6.28116 3.75287 8.07771 3.39307 10.0135 3.39307C10.3206 3.39307 10.6241 3.40207 10.9236 3.42041C12.4574 3.51261 13.88 3.84231 15.0988 4.40485C15.1483 4.42713 15.1973 4.45057 15.246 4.47398C17.6433 5.63333 19.2134 7.71904 19.2134 10.7024Z" fill="#CD2A00"/>
<path d="M19.2135 10.7025C19.2135 11.7006 19.0378 12.6593 18.7141 13.5531C17.2353 15.7657 14.7403 17.3037 11.854 17.5733C11.5548 17.6014 11.2509 17.6158 10.9438 17.6158C5.86289 17.6158 1.7439 13.6984 1.7439 8.86648C1.7439 8.06719 1.85668 7.33239 2.0676 6.66282C2.72172 5.77489 3.60457 5.06584 4.65161 4.53809C6.16123 3.77745 8.01279 3.39307 10.0135 3.39307C10.3206 3.39307 10.6241 3.40207 10.9236 3.42041C12.5195 3.5165 13.9951 3.86927 15.246 4.47398C17.6433 5.63341 19.2135 7.71912 19.2135 10.7025Z" fill="#FF3501"/>
<path d="M15.345 7.41079L13.288 5.58841C13.0253 5.35519 13.1274 4.92039 13.4661 4.83171L14.9894 4.4333C15.0264 4.42362 15.031 4.3732 14.9962 4.35759C13.8089 3.82465 12.4283 3.46232 10.95 3.37015L10.956 1.01942C10.956 0.507589 10.5319 0.0888672 10.0134 0.0888672C9.495 0.0888672 9.07085 0.507589 9.07085 1.01938L9.0648 3.37061C7.57847 3.46379 6.20163 3.82556 5.01074 4.36625C4.94048 4.39813 4.95129 4.49997 5.0266 4.51718L6.32376 4.81405C6.67792 4.8949 6.78438 5.35197 6.503 5.58365L4.54503 7.19704C4.36498 7.3451 4.52208 7.63498 4.74289 7.56153L8.56587 6.28646C8.80212 6.20795 9.05576 6.34466 9.12226 6.58647L9.79576 9.0378C9.85314 9.24603 10.1464 9.24368 10.2002 9.03428L10.8242 6.60757C10.8895 6.35287 11.1602 6.21302 11.4031 6.30794L15.1312 7.767C15.3493 7.85262 15.5206 7.56702 15.345 7.41079Z" fill="#5EAC24"/>
</g>
<defs>
<clipPath id="clip0">
<rect width="19.6139" height="19.3629" fill="white" transform="translate(0.206543 0.0888672)"/>
</clipPath>
</defs>
</svg>
